<svg xmlns="http://www.w3.org/2000/svg" xmlns:xlink="http://www.w3.org/1999/xlink" class="variation-svg fade-enter-done" style="transform:scale(1)" viewBox="19.87 48.57 535.26 473.585">
  <svg version="1.0" xmlns="http://www.w3.org/2000/svg" width="230" height="230" viewBox="0 0 600.000000 600.000000" x="172.5" y="118.57" preserveAspectRatio="xMidYMid meet">
    <g transform="translate(0.000000,600.000000) scale(0.100000,-0.100000)" fill="#000000" stroke="none">
      <path d="M1497 2995 l-1497 -2995 2045 0 c1125 0 2045 2 2045 5 0 3 -92 190
-205 415 l-205 410 -1115 0 c-613 0 -1115 2 -1115 5 0 3 465 934 1032 2070
l1033 2065 -255 510 c-140 280 -257 510 -260 510 -3 0 -679 -1348 -1503 -2995z" />
      <path fill="#8B0000" d="M3716 3612 l-236 -472 785 -1570 785 -1570 470 0 c259 0 470 3 469 8
0 4 -458 923 -1018 2042 l-1018 2035 -237 -473z" />
    </g>
  </svg>
  <svg width="395.26" height="16.94" x="89.87" y="435.215" data-layer-type="text" style="position:absolute" viewBox="2.05 4.07 395.26 16.94">
    <path d="M3.24 12.08v-1.15H9.9v1.15H3.24Zm.14-6.1v11.44H2.05V4.82h8.64v1.16H3.38Zm14.28 11.53q-1.21 0-2.11-.45-.9-.45-1.39-1.35-.5-.9-.5-2.25V7.97h1.28v5.35q0 1.51.75 2.28.74.76 2.09.76.99 0 1.72-.4.73-.41 1.12-1.18.39-.78.39-1.86V7.97h1.27v9.45h-1.22v-2.59l.2.47q-.45 1.04-1.4 1.63-.94.58-2.2.58Zm10.37-.09h-1.28V4.07h1.28v13.35Zm5.74 0h-1.28V4.07h1.28v13.35Zm4.53 3.59q-.66 0-1.27-.22-.6-.22-1.03-.65l.59-.95q.36.34.79.53.42.19.94.19.63 0 1.09-.35.46-.35.87-1.24l.62-1.38.14-.2 3.89-8.77h1.26l-4.74 10.59q-.39.92-.87 1.46-.48.54-1.03.76-.56.23-1.25.23Zm3.35-4.36-.83 1.04-4.35-9.72h1.33l3.85 8.68Zm14.13.77H54.5V7.97h1.28v9.45Zm-.63-11.53q-.39 0-.66-.27t-.27-.65q0-.38.27-.64t.66-.26q.4 0 .67.25t.27.63q0 .4-.26.67t-.68.27Zm9.92 1.99q1.15 0 2.02.45.88.44 1.37 1.34.5.9.5 2.26v5.49h-1.28v-5.36q0-1.49-.75-2.26-.74-.76-2.09-.76-1.01 0-1.76.4-.75.41-1.15 1.17-.41.77-.41 1.85v4.96h-1.27V7.97h1.22v2.6l-.2-.49q.45-1.03 1.44-1.61.99-.59 2.36-.59Zm11.23 9.63q-1.33 0-2.05-.72-.72-.72-.72-2.03V5.89h1.28v8.8q0 .83.42 1.28.42.45 1.22.45.84 0 1.4-.49l.45.92q-.38.34-.91.5-.53.16-1.09.16Zm1.39-8.47h-5.85V7.97h5.85v1.07Zm7.5 8.47q-1.47 0-2.59-.62-1.11-.62-1.74-1.71-.63-1.09-.63-2.49 0-1.4.6-2.48t1.66-1.7q1.05-.63 2.36-.63 1.33 0 2.37.61 1.03.6 1.63 1.69.59 1.09.59 2.51 0 .09-.01.19t-.01.21H81.2v-.96h7.54l-.5.38q0-1.03-.44-1.83-.45-.8-1.2-1.25-.76-.45-1.75-.45-.97 0-1.74.45-.78.45-1.21 1.26-.43.81-.43 1.86v.19q0 1.08.48 1.9.47.82 1.33 1.28.85.46 1.95.46.86 0 1.61-.31.75-.3 1.29-.93l.72.83q-.63.75-1.58 1.15-.94.39-2.08.39Zm11.79 3.5q-1.29 0-2.48-.38t-1.93-1.08l.65-.97q.67.59 1.65.94.98.35 2.08.35 1.8 0 2.64-.83.85-.84.85-2.61v-2.35l.18-1.62-.13-1.62V7.97h1.23v8.3q0 2.45-1.2 3.59-1.2 1.15-3.54 1.15Zm-.23-3.95q-1.35 0-2.43-.58-1.08-.59-1.7-1.63-.62-1.04-.62-2.39t.62-2.39q.62-1.03 1.7-1.61 1.08-.58 2.43-.58 1.26 0 2.27.53 1.01.52 1.6 1.54.59 1.03.59 2.51 0 1.47-.59 2.5-.59 1.02-1.6 1.56-1.01.54-2.27.54Zm.13-1.13q1.04 0 1.85-.44t1.28-1.22q.47-.79.47-1.81 0-1.03-.47-1.8-.47-.78-1.28-1.22Q97.92 9 96.88 9q-1.03 0-1.85.44-.82.44-1.28 1.22-.46.77-.46 1.8 0 1.02.46 1.81.46.78 1.28 1.22.82.44 1.85.44Zm10.58 1.49h-1.28V7.97h1.23v2.58l-.13-.45q.4-1.08 1.33-1.65.94-.57 2.32-.57v1.25q-.07 0-.14-.01t-.14-.01q-1.5 0-2.34.91-.85.91-.85 2.58v4.82Zm13.14 0h-1.22v-2.08l-.06-.35V11.5q0-1.2-.67-1.85-.68-.65-2.01-.65-.92 0-1.75.31-.82.3-1.4.81l-.58-.96q.72-.61 1.73-.94 1.01-.34 2.13-.34 1.83 0 2.83.91t1 2.77v5.86Zm-4.48.09q-1.06 0-1.85-.35-.78-.35-1.19-.97-.42-.62-.42-1.43 0-.74.35-1.34.35-.6 1.16-.97.8-.37 2.15-.37h3.25v.95h-3.22q-1.37 0-1.9.49-.53.48-.53 1.2 0 .81.63 1.3t1.77.49q1.08 0 1.86-.5.78-.49 1.14-1.43l.29.88q-.36.94-1.25 1.5-.89.55-2.24.55Zm11.84 0q-1.33 0-2.05-.72-.72-.72-.72-2.03V5.89h1.28v8.8q0 .83.42 1.28.42.45 1.22.45.84 0 1.4-.49l.45.92q-.38.34-.91.5-.53.16-1.09.16Zm1.39-8.47h-5.85V7.97h5.85v1.07Zm7.5 8.47q-1.47 0-2.59-.62-1.11-.62-1.74-1.71-.63-1.09-.63-2.49 0-1.4.6-2.48t1.66-1.7q1.05-.63 2.36-.63 1.33 0 2.37.61 1.03.6 1.63 1.69.59 1.09.59 2.51 0 .09-.01.19t-.01.21h-8.22v-.96h7.54l-.5.38q0-1.03-.44-1.83-.45-.8-1.2-1.25-.76-.45-1.75-.45-.97 0-1.74.45-.78.45-1.21 1.26-.43.81-.43 1.86v.19q0 1.08.48 1.9.47.82 1.33 1.28.85.46 1.95.46.86 0 1.61-.31.75-.3 1.29-.93l.72.83q-.63.75-1.58 1.15-.94.39-2.08.39Zm11.52 0q-1.35 0-2.42-.61-1.07-.61-1.68-1.7-.61-1.09-.61-2.51 0-1.44.61-2.52t1.68-1.68q1.07-.61 2.42-.61 1.25 0 2.23.56t1.56 1.63q.59 1.07.59 2.62 0 1.53-.58 2.61-.57 1.08-1.55 1.65-.99.56-2.25.56Zm.09-1.13q1.01 0 1.81-.46t1.26-1.29q.46-.84.46-1.94 0-1.12-.46-1.94-.46-.83-1.26-1.29-.8-.46-1.81-.46-.99 0-1.78.46t-1.26 1.29q-.47.82-.47 1.94 0 1.1.47 1.94.47.83 1.26 1.29.79.46 1.78.46Zm4.79 1.04h-1.22v-2.84l.12-1.91-.18-1.91V4.07h1.28v13.35Zm11.36 0h-1.28V7.97h1.28v9.45Zm-.63-11.53q-.4 0-.67-.27t-.27-.65q0-.38.27-.64t.67-.26q.4 0 .67.25t.27.63q0 .4-.26.67-.27.27-.68.27Zm9.92 1.99q1.15 0 2.02.45.88.44 1.37 1.34.5.9.5 2.26v5.49h-1.28v-5.36q0-1.49-.75-2.26-.75-.76-2.1-.76-1 0-1.75.4-.75.41-1.15 1.17-.41.77-.41 1.85v4.96h-1.28V7.97h1.23v2.6l-.2-.49q.45-1.03 1.44-1.61.99-.59 2.36-.59Zm11.81 9.54h-1.32l-4.19-9.45h1.33l3.85 8.77h-.63l3.91-8.77h1.26l-4.21 9.45Zm10.65.09q-1.47 0-2.59-.62-1.12-.62-1.75-1.71-.63-1.09-.63-2.49 0-1.4.61-2.48.6-1.08 1.65-1.7 1.06-.63 2.37-.63 1.33 0 2.37.61 1.03.6 1.63 1.69.59 1.09.59 2.51 0 .09-.01.19t-.01.21h-8.22v-.96h7.54l-.51.38q0-1.03-.44-1.83t-1.19-1.25q-.76-.45-1.75-.45-.97 0-1.75.45-.77.45-1.2 1.26-.43.81-.43 1.86v.19q0 1.08.47 1.9.48.82 1.34 1.28.85.46 1.95.46.86 0 1.61-.31.75-.3 1.29-.93l.72.83q-.63.75-1.58 1.15-.94.39-2.08.39Zm12.58-9.63q1.16 0 2.03.45.87.44 1.37 1.34.49.9.49 2.26v5.49h-1.28v-5.36q0-1.49-.74-2.26-.75-.76-2.1-.76-1.01 0-1.75.4-.75.41-1.16 1.17-.4.77-.4 1.85v4.96h-1.28V7.97h1.22v2.6l-.19-.49q.45-1.03 1.44-1.61.99-.59 2.35-.59Zm11.24 9.63q-1.34 0-2.06-.72t-.72-2.03V5.89h1.28v8.8q0 .83.43 1.28.42.45 1.21.45.85 0 1.4-.49l.45.92q-.37.34-.9.5-.54.16-1.09.16Zm1.38-8.47h-5.85V7.97h5.85v1.07Zm7.35 8.47q-1.37 0-2.46-.62-1.09-.62-1.72-1.71-.63-1.09-.63-2.49 0-1.42.63-2.5t1.71-1.69q1.08-.62 2.47-.62 1.4 0 2.49.62 1.09.61 1.71 1.69.62 1.08.62 2.5 0 1.4-.62 2.49-.62 1.09-1.72 1.71-1.1.62-2.48.62Zm0-1.13q1.02 0 1.81-.46.8-.46 1.26-1.29.45-.84.45-1.94 0-1.12-.45-1.94-.46-.83-1.26-1.29-.79-.46-1.8-.46-1 0-1.8.46-.79.46-1.26 1.29-.46.82-.46 1.94 0 1.1.46 1.94.47.83 1.26 1.29.8.46 1.79.46Zm9.61 1.04h-1.28V7.97h1.22v2.58l-.12-.45q.39-1.08 1.33-1.65.94-.57 2.32-.57v1.25q-.07 0-.14-.01t-.15-.01q-1.49 0-2.34.91-.84.91-.84 2.58v4.82Zm7.18 3.59q-.67 0-1.27-.22t-1.03-.65l.59-.95q.36.34.78.53.43.19.95.19.63 0 1.09-.35.46-.35.87-1.24l.61-1.38.15-.2 3.88-8.77h1.26l-4.73 10.59q-.4.92-.87 1.46-.48.54-1.04.76-.56.23-1.24.23Zm3.35-4.36-.83 1.04-4.36-9.72h1.34l3.85 8.68Zm24.66-8.77q1.15 0 2.01.45.85.44 1.33 1.34.47.9.47 2.26v5.49h-1.27v-5.36q0-1.49-.71-2.26-.72-.76-2.01-.76-.97 0-1.68.4-.72.41-1.1 1.17-.39.77-.39 1.85v4.96h-1.28v-5.36q0-1.49-.72-2.26-.72-.76-2.01-.76-.96 0-1.68.4-.72.41-1.1 1.17-.39.77-.39 1.85v4.96h-1.28V7.97h1.22v2.56l-.19-.45q.43-1.03 1.39-1.61.96-.59 2.28-.59 1.38 0 2.36.7.97.69 1.26 2.08l-.51-.2q.42-1.15 1.47-1.86 1.05-.72 2.53-.72Zm15.33 9.54h-1.22v-2.08l-.05-.35V11.5q0-1.2-.68-1.85-.67-.65-2.01-.65-.91 0-1.74.31-.83.3-1.41.81l-.57-.96q.72-.61 1.73-.94 1-.34 2.12-.34 1.84 0 2.84.91.99.91.99 2.77v5.86Zm-4.48.09q-1.06 0-1.84-.35-.79-.35-1.2-.97-.41-.62-.41-1.43 0-.74.35-1.34.35-.6 1.15-.97.8-.37 2.15-.37h3.26v.95h-3.22q-1.37 0-1.9.49-.53.48-.53 1.2 0 .81.63 1.3t1.76.49q1.08 0 1.86-.5.79-.49 1.15-1.43l.28.88q-.36.94-1.25 1.5-.89.55-2.24.55Zm13.68-9.63q1.15 0 2.03.45.87.44 1.37 1.34.49.9.49 2.26v5.49h-1.28v-5.36q0-1.49-.74-2.26-.75-.76-2.1-.76-1.01 0-1.76.4-.74.41-1.15 1.17-.4.77-.4 1.85v4.96h-1.28V7.97h1.22v2.6l-.2-.49q.45-1.03 1.44-1.61.99-.59 2.36-.59Zm15.39 9.54h-1.22v-2.08l-.06-.35V11.5q0-1.2-.67-1.85Q311 9 309.67 9q-.92 0-1.74.31-.83.3-1.41.81l-.57-.96q.72-.61 1.72-.94 1.01-.34 2.13-.34 1.83 0 2.83.91t1 2.77v5.86Zm-4.48.09q-1.06 0-1.84-.35-.79-.35-1.2-.97-.42-.62-.42-1.43 0-.74.36-1.34.35-.6 1.15-.97.8-.37 2.15-.37h3.26v.95h-3.23q-1.36 0-1.89.49-.54.48-.54 1.2 0 .81.63 1.3t1.77.49q1.08 0 1.86-.5.78-.49 1.14-1.43l.29.88q-.36.94-1.25 1.5-.89.55-2.24.55Zm12.89 3.5q-1.3 0-2.49-.38-1.18-.38-1.92-1.08l.65-.97q.66.59 1.64.94.98.35 2.08.35 1.8 0 2.65-.83.84-.84.84-2.61v-2.35l.18-1.62-.12-1.62V7.97h1.22v8.3q0 2.45-1.19 3.59-1.2 1.15-3.54 1.15Zm-.24-3.95q-1.35 0-2.43-.58-1.08-.59-1.7-1.63-.62-1.04-.62-2.39t.62-2.39q.62-1.03 1.7-1.61 1.08-.58 2.43-.58 1.26 0 2.27.53 1.01.52 1.6 1.54.6 1.03.6 2.51 0 1.47-.6 2.5-.59 1.02-1.6 1.56-1.01.54-2.27.54Zm.13-1.13q1.04 0 1.85-.44t1.28-1.22q.47-.79.47-1.81 0-1.03-.47-1.8-.47-.78-1.28-1.22-.81-.44-1.85-.44-1.03 0-1.84.44-.82.44-1.28 1.22-.46.77-.46 1.8 0 1.02.46 1.81.46.78 1.28 1.22.81.44 1.84.44Zm13.32 1.58q-1.48 0-2.59-.62-1.12-.62-1.75-1.71-.63-1.09-.63-2.49 0-1.4.6-2.48.61-1.08 1.66-1.7 1.05-.63 2.37-.63 1.33 0 2.37.61 1.03.6 1.62 1.69.6 1.09.6 2.51 0 .09-.01.19t-.01.21h-8.23v-.96h7.55l-.51.38q0-1.03-.44-1.83t-1.2-1.25q-.75-.45-1.74-.45-.97 0-1.75.45-.77.45-1.2 1.26-.44.81-.44 1.86v.19q0 1.08.48 1.9.48.82 1.33 1.28.86.46 1.96.46.86 0 1.61-.31.74-.3 1.28-.93l.72.83q-.63.75-1.57 1.15-.95.39-2.08.39Zm19.57-9.63q1.15 0 2 .45.86.44 1.33 1.34.48.9.48 2.26v5.49h-1.28v-5.36q0-1.49-.71-2.26-.71-.76-2-.76-.98 0-1.69.4-.71.41-1.09 1.17-.39.77-.39 1.85v4.96h-1.28v-5.36q0-1.49-.72-2.26-.72-.76-2.02-.76-.95 0-1.67.4-.72.41-1.11 1.17-.38.77-.38 1.85v4.96h-1.28V7.97h1.22v2.56l-.2-.45q.44-1.03 1.4-1.61.96-.59 2.28-.59 1.38 0 2.35.7.98.69 1.26 2.08l-.5-.2q.41-1.15 1.47-1.86 1.05-.72 2.53-.72Zm12.2 9.63q-1.48 0-2.59-.62-1.12-.62-1.75-1.71-.63-1.09-.63-2.49 0-1.4.6-2.48.61-1.08 1.66-1.7 1.05-.63 2.37-.63 1.33 0 2.37.61 1.03.6 1.62 1.69.6 1.09.6 2.51 0 .09-.01.19t-.01.21h-8.23v-.96h7.55l-.51.38q0-1.03-.44-1.83t-1.2-1.25q-.75-.45-1.74-.45-.97 0-1.75.45-.77.45-1.2 1.26-.44.81-.44 1.86v.19q0 1.08.48 1.9.48.82 1.33 1.28.86.46 1.96.46.86 0 1.61-.31.74-.3 1.28-.93l.72.83q-.63.75-1.57 1.15-.95.39-2.08.39Zm12.58-9.63q1.15 0 2.03.45.87.44 1.37 1.34.49.9.49 2.26v5.49h-1.28v-5.36q0-1.49-.75-2.26-.74-.76-2.09-.76-1.01 0-1.76.4-.74.41-1.15 1.17-.4.77-.4 1.85v4.96h-1.28V7.97H376v2.6l-.2-.49q.45-1.03 1.44-1.61.99-.59 2.36-.59Zm11.23 9.63q-1.33 0-2.05-.72-.72-.72-.72-2.03V5.89h1.28v8.8q0 .83.42 1.28.43.45 1.22.45.84 0 1.4-.49l.45.92q-.38.34-.91.5-.53.16-1.09.16Zm1.39-8.47h-5.85V7.97h5.85v1.07Zm4.14 8.47q-.4 0-.68-.28-.27-.29-.27-.71 0-.43.27-.7.28-.27.68-.27t.67.27q.28.27.28.7 0 .42-.28.71-.27.28-.67.28Z" data-horizontal-grow="center" style="fill:#de3a3a;font-size:18px;font-weight:400;font-style:normal;font-family:Montserrat;dominant-baseline:hanging;letter-spacing:.05em;fill-opacity:1" />
  </svg>
  <svg width="330.59" height="28.83" x="122.205" y="383.785" data-layer-type="text" style="position:absolute" viewBox="3.01 8.58 330.59 28.83">
    <path d="M18.88 30.98H3.01V8.58h4.16v18.88h11.71v3.52Zm18.78.22q-2.84 0-4.97-1.14-2.13-1.13-3.3-3.12-1.17-1.98-1.17-4.51 0-2.56 1.14-4.53 1.14-1.96 3.14-3.08t4.56-1.12q2.49 0 4.44 1.08 1.96 1.09 3.08 3.08 1.12 1.98 1.12 4.67 0 .25-.02.57-.02.32-.05.61H31.39v-2.65h12.13l-1.57.83q.03-1.47-.61-2.59-.64-1.12-1.74-1.76-1.1-.64-2.54-.64-1.48 0-2.58.64t-1.73 1.77q-.62 1.14-.62 2.67v.64q0 1.54.7 2.72.71 1.19 1.99 1.83 1.28.64 2.94.64 1.44 0 2.59-.45t2.05-1.41l2.14 2.47q-1.15 1.34-2.89 2.06-1.75.72-3.99.72Zm33.7-.22h-3.78v-3.46l-.22-.74v-6.04q0-1.76-1.06-2.74-1.05-.98-3.2-.98-1.44 0-2.83.45-1.39.45-2.35 1.25l-1.57-2.91q1.38-1.06 3.28-1.59 1.91-.52 3.95-.52 3.72 0 5.75 1.77 2.03 1.78 2.03 5.49v10.02Zm-9.15.22q-1.92 0-3.36-.66-1.44-.65-2.23-1.82-.78-1.17-.78-2.64 0-1.44.69-2.59t2.25-1.83q1.57-.67 4.16-.67h4.96v2.66h-4.67q-2.05 0-2.75.65-.7.66-.7 1.62 0 1.09.86 1.73.86.64 2.4.64 1.47 0 2.64-.67 1.17-.68 1.68-1.99l.67 2.4q-.57 1.51-2.06 2.34-1.49.83-3.76.83Zm31.97-17.5q2.04 0 3.66.8t2.54 2.44q.93 1.65.93 4.24v9.8h-4V21.7q0-2.28-1.07-3.4t-2.99-1.12q-1.41 0-2.5.58t-1.68 1.71q-.59 1.14-.59 2.87v8.64h-4V13.89h3.81v4.61l-.67-1.41q.89-1.63 2.6-2.51 1.72-.88 3.96-.88Zm24.76 17.28h-4.16V8.58h4.16v22.4ZM142.3 13.7q2.05 0 3.67.8 1.61.8 2.54 2.44.93 1.65.93 4.24v9.8h-4V21.7q0-2.28-1.07-3.4t-2.99-1.12q-1.41 0-2.5.58t-1.68 1.71q-.59 1.14-.59 2.87v8.64h-4V13.89h3.81v4.61l-.68-1.41q.9-1.63 2.61-2.51 1.71-.88 3.95-.88Zm28.58 17.28h-4.13l-7.33-17.09h4.16l6.31 15.07h-2.05l6.53-15.07h3.84l-7.33 17.09Zm25.38.22q-2.85 0-4.98-1.14-2.13-1.13-3.3-3.12-1.16-1.98-1.16-4.51 0-2.56 1.13-4.53 1.14-1.96 3.14-3.08t4.56-1.12q2.49 0 4.45 1.08 1.95 1.09 3.07 3.08 1.12 1.98 1.12 4.67 0 .25-.02.57-.01.32-.05.61h-14.24v-2.65h12.13l-1.57.83q.04-1.47-.6-2.59-.64-1.12-1.75-1.76-1.1-.64-2.54-.64-1.47 0-2.58.64-1.1.64-1.73 1.77-.62 1.14-.62 2.67v.64q0 1.54.7 2.72.71 1.19 1.99 1.83 1.28.64 2.94.64 1.44 0 2.59-.45 1.16-.45 2.05-1.41l2.15 2.47q-1.16 1.34-2.9 2.06t-3.98.72Zm29.56-17.5q2.05 0 3.67.8 1.61.8 2.54 2.44.93 1.65.93 4.24v9.8h-4V21.7q0-2.28-1.07-3.4t-2.99-1.12q-1.41 0-2.5.58t-1.68 1.71q-.59 1.14-.59 2.87v8.64h-4V13.89h3.81v4.61l-.68-1.41q.9-1.63 2.61-2.51 1.71-.88 3.95-.88Zm26.66 17.5q-2.82 0-4.35-1.46-1.54-1.45-1.54-4.3V10.11h4v15.23q0 1.22.63 1.89.62.67 1.74.67 1.34 0 2.24-.7l1.12 2.85q-.7.57-1.73.86-1.02.29-2.11.29Zm2.69-13.98h-11.39v-3.2h11.39v3.2Zm19.55 13.98q-2.62 0-4.67-1.14-2.05-1.13-3.23-3.12-1.19-1.98-1.19-4.51 0-2.56 1.19-4.53 1.18-1.96 3.23-3.08t4.67-1.12q2.66 0 4.72 1.12 2.06 1.12 3.23 3.07 1.17 1.95 1.17 4.54 0 2.53-1.17 4.51-1.17 1.99-3.23 3.12-2.06 1.14-4.72 1.14Zm0-3.42q1.47 0 2.62-.64 1.16-.64 1.81-1.86.66-1.22.66-2.85 0-1.66-.66-2.86-.65-1.2-1.81-1.84-1.15-.64-2.59-.64-1.47 0-2.61.64-1.13.64-1.8 1.84-.68 1.2-.68 2.86 0 1.63.68 2.85.67 1.22 1.8 1.86 1.14.64 2.58.64Zm24.96 3.2h-4V13.89h3.81v4.7l-.45-1.37q.77-1.73 2.42-2.63 1.64-.89 4.11-.89v3.8q-.26-.06-.48-.08-.23-.01-.45-.01-2.27 0-3.62 1.33-1.34 1.32-1.34 3.95v8.29Zm19.33 6.43q-1.25 0-2.5-.42-1.25-.41-2.08-1.15l1.6-2.94q.61.54 1.38.86.77.32 1.57.32 1.08 0 1.76-.54.67-.55 1.24-1.83l1-2.24.32-.48 6.46-15.1h3.84l-8 18.46q-.8 1.92-1.78 3.04-.97 1.12-2.17 1.57-1.2.45-2.64.45Zm6.24-8.77-2.72 2.94-7.71-17.69h4.16l6.27 14.75Z" data-horizontal-grow="center" style="fill:#000;font-size:32px;font-weight:600;font-style:normal;font-family:Montserrat;dominant-baseline:hanging;text-transform:none;letter-spacing:.25em;fill-opacity:1" />
  </svg>
</svg>